<?xml version="1.0" encoding="iso-8859-1"?>
<!-- Generator: Adobe Illustrator 19.0.0, SVG Export Plug-In . SVG Version: 6.00 Build 0)  -->
<svg version="1.1" id="Layer_1" xmlns="http://www.w3.org/2000/svg" xmlns:xlink="http://www.w3.org/1999/xlink" x="0px" y="0px"
	 viewBox="0 0 512 512" style="enable-background:new 0 0 512 512;" xml:space="preserve">
<g>
	<g>
		<g>
			<path d="M259.354,83.695c1.664,1.664,3.849,2.5,6.033,2.5c2.185,0,4.369-0.836,6.033-2.5c3.337-3.337,3.337-8.738,0-12.066
				l-24.141-24.141c-3.337-3.336-8.73-3.336-12.066,0c-3.337,3.337-3.337,8.738,0,12.066L259.354,83.695z"/>
			<path d="M296.26,55.023c1.357,3.294,4.548,5.274,7.885,5.274c1.092,0,2.202-0.213,3.268-0.657
				c4.352-1.801,6.417-6.793,4.617-11.145l-6.536-15.77c-1.801-4.369-6.81-6.409-11.145-4.617c-4.352,1.8-6.417,6.792-4.617,11.145
				L296.26,55.023z"/>
			<path d="M196.267,170.675l34.133-0.009c4.71,0,8.533-3.823,8.533-8.533c0-4.71-3.831-8.533-8.533-8.533l-34.133,0.008
				c-4.719,0-8.533,3.814-8.533,8.533C187.733,166.852,191.556,170.675,196.267,170.675z"/>
			<path d="M452.352,119.68c1.357,3.285,4.548,5.274,7.885,5.274c1.092,0,2.202-0.213,3.268-0.657l15.77-6.528
				c4.343-1.809,6.417-6.801,4.617-11.153c-1.809-4.352-6.81-6.409-11.153-4.617l-15.77,6.528
				C452.625,110.336,450.552,115.328,452.352,119.68z"/>
			<path d="M220.459,117.76l15.77,6.536c1.067,0.435,2.176,0.649,3.268,0.649c3.345,0,6.528-1.988,7.885-5.265
				c1.801-4.361-0.265-9.353-4.617-11.153l-15.77-6.528c-4.335-1.792-9.353,0.256-11.153,4.617
				C214.05,110.967,216.115,115.959,220.459,117.76z"/>
			<path d="M434.338,86.195c2.185,0,4.369-0.836,6.033-2.5l24.141-24.141c3.337-3.328,3.337-8.73,0-12.066
				c-3.337-3.336-8.73-3.336-12.066,0l-24.141,24.141c-3.337,3.328-3.337,8.73,0,12.066
				C429.969,85.359,432.154,86.195,434.338,86.195z"/>
			<path d="M153.6,320.99V85.333c0-28.237-22.972-51.2-51.2-51.2c-28.237,0-51.2,22.963-51.2,51.2v8.533
				c0,4.71,3.814,8.533,8.533,8.533c4.71,0,8.533-3.823,8.533-8.533v-8.533c0-18.825,15.3-34.133,34.133-34.133
				c18.825,0,34.133,15.309,34.133,34.133v240.725c0,3.209,1.792,6.135,4.634,7.595c28.723,14.703,46.566,43.802,46.566,75.947
				c0,47.053-38.289,85.333-85.333,85.333c-47.053,0-85.333-38.281-85.333-85.333c0-32.145,17.835-61.244,46.558-75.947
				c2.85-1.459,4.642-4.386,4.642-7.595v-35.925H76.8c4.71,0,8.533-3.823,8.533-8.533c0-4.719-3.823-8.533-8.533-8.533h-8.533
				v-34.133H76.8c4.71,0,8.533-3.823,8.533-8.533c0-4.719-3.823-8.533-8.533-8.533h-8.533v-34.133H76.8
				c4.71,0,8.533-3.823,8.533-8.533c0-4.719-3.823-8.533-8.533-8.533h-8.533v-34.133h42.667c4.71,0,8.533-3.823,8.533-8.533
				c0-4.719-3.823-8.533-8.533-8.533h-51.2c-4.719,0-8.533,3.814-8.533,8.533v192.99C19.482,339.302,0,372.787,0,409.6
				C0,466.057,45.926,512,102.4,512c56.465,0,102.4-45.943,102.4-102.4C204.8,372.787,185.31,339.302,153.6,320.99z"/>
			<path d="M392.311,59.639c1.067,0.444,2.176,0.657,3.268,0.657c3.345,0,6.528-1.988,7.885-5.274l6.528-15.77
				c1.801-4.352-0.265-9.344-4.617-11.145c-4.326-1.801-9.344,0.247-11.145,4.617l-6.537,15.761
				C385.894,52.838,387.959,57.83,392.311,59.639z"/>
			<path d="M349.867,51.2c4.71,0,8.533-3.823,8.533-8.533V8.533c0-4.719-3.823-8.533-8.533-8.533c-4.719,0-8.533,3.814-8.533,8.533
				v34.133C341.333,47.377,345.148,51.2,349.867,51.2z"/>
			<path d="M307.422,264.619c-4.343-1.792-9.353,0.265-11.153,4.617l-6.519,15.77c-1.801,4.352,0.265,9.344,4.617,11.145
				c1.067,0.444,2.176,0.657,3.26,0.657c3.354,0,6.528-1.988,7.885-5.274l6.528-15.77
				C313.839,271.411,311.774,266.419,307.422,264.619z"/>
			<path d="M479.275,206.481l-15.787-6.519c-4.344-1.775-9.344,0.265-11.145,4.625c-1.801,4.352,0.273,9.344,4.625,11.145
				l15.787,6.528c1.067,0.435,2.167,0.648,3.26,0.648c3.345,0,6.519-1.988,7.885-5.282
				C485.7,213.274,483.627,208.282,479.275,206.481z"/>
			<path d="M440.371,240.572c-3.337-3.328-8.73-3.328-12.066,0c-3.337,3.337-3.337,8.738,0,12.075l24.141,24.132
				c1.664,1.655,3.849,2.492,6.033,2.492c2.185,0,4.369-0.836,6.033-2.5c3.337-3.328,3.337-8.738,0-12.066L440.371,240.572z"/>
			<path d="M349.867,68.267c-51.763,0-93.867,42.112-93.867,93.867C256,213.897,298.103,256,349.867,256
				c51.755,0,93.867-42.103,93.867-93.867C443.733,110.379,401.621,68.267,349.867,68.267z M349.867,238.933
				c-42.351,0-76.8-34.449-76.8-76.8c0-42.342,34.449-76.8,76.8-76.8c42.342,0,76.8,34.458,76.8,76.8
				C426.667,204.484,392.209,238.933,349.867,238.933z"/>
			<path d="M93.867,452.267c0,4.71,3.814,8.533,8.533,8.533c28.228,0,51.2-22.972,51.2-51.2c0-4.719-3.823-8.533-8.533-8.533
				c-4.719,0-8.533,3.814-8.533,8.533c0,18.816-15.309,34.133-34.133,34.133C97.681,443.733,93.867,447.548,93.867,452.267z"/>
			<path d="M503.467,153.6h-34.133c-4.719,0-8.533,3.823-8.533,8.533c0,4.71,3.814,8.533,8.533,8.533h34.133
				c4.71,0,8.533-3.823,8.533-8.533C512,157.423,508.177,153.6,503.467,153.6z"/>
			<path d="M403.465,269.227c-1.809-4.352-6.81-6.391-11.153-4.608c-4.36,1.809-6.426,6.801-4.617,11.153l6.545,15.77
				c1.365,3.277,4.54,5.265,7.885,5.265c1.092,0,2.193-0.213,3.26-0.657c4.36-1.809,6.426-6.801,4.617-11.153L403.465,269.227z"/>
			<path d="M259.354,240.572l-24.132,24.149c-3.336,3.328-3.336,8.738,0,12.066c1.664,1.664,3.849,2.5,6.033,2.5
				c2.185,0,4.369-0.836,6.033-2.5l24.132-24.141c3.337-3.337,3.337-8.738,0-12.075C268.092,237.244,262.69,237.244,259.354,240.572
				z"/>
			<path d="M247.381,204.587c-1.809-4.361-6.81-6.409-11.153-4.617l-15.77,6.536c-4.352,1.801-6.417,6.801-4.617,11.145
				c1.374,3.294,4.548,5.274,7.885,5.274c1.092,0,2.202-0.213,3.268-0.657l15.77-6.537
				C247.125,213.931,249.19,208.93,247.381,204.587z"/>
			<path d="M349.867,273.058c-4.719,0-8.533,3.823-8.533,8.533l0.008,34.133c0,4.719,3.823,8.533,8.533,8.533
				c4.71,0,8.533-3.823,8.533-8.533l-0.009-34.133C358.4,276.873,354.569,273.058,349.867,273.058z"/>
		</g>
	</g>
</g>
<g>
</g>
<g>
</g>
<g>
</g>
<g>
</g>
<g>
</g>
<g>
</g>
<g>
</g>
<g>
</g>
<g>
</g>
<g>
</g>
<g>
</g>
<g>
</g>
<g>
</g>
<g>
</g>
<g>
</g>
</svg>
