<?xml version="1.0" encoding="iso-8859-1"?>
<!-- Generator: Adobe Illustrator 19.0.0, SVG Export Plug-In . SVG Version: 6.00 Build 0)  -->
<svg version="1.1" id="Layer_1" xmlns="http://www.w3.org/2000/svg" xmlns:xlink="http://www.w3.org/1999/xlink" x="0px" y="0px"
	 viewBox="0 0 512 512" style="enable-background:new 0 0 512 512;" xml:space="preserve">
<g>
	<g>
		<g>
			<path d="M256,264.533c9.412,0,17.067-7.654,17.067-17.067V179.2c0-9.421-7.654-17.067-17.067-17.067h-34.133
				c-9.421,0-17.067,7.646-17.067,17.067v68.267c0,9.412,7.646,17.067,17.067,17.067H256z M221.867,179.2H256l0.017,68.267h-34.15
				V179.2z"/>
			<path d="M375.467,366.933c-4.719,0-8.533,3.823-8.533,8.533s3.814,8.533,8.533,8.533h76.8c4.719,0,8.533-3.823,8.533-8.533
				s-3.814-8.533-8.533-8.533H375.467z"/>
			<path d="M51.2,409.6c0-4.71-3.814-8.533-8.533-8.533s-8.533,3.823-8.533,8.533c0,23.526,19.14,42.667,42.667,42.667
				c23.526,0,42.667-19.14,42.667-42.667c0-4.71-3.814-8.533-8.533-8.533s-8.533,3.823-8.533,8.533c0,14.114-11.486,25.6-25.6,25.6
				S51.2,423.714,51.2,409.6z"/>
			<path d="M8.533,42.667h494.933c4.719,0,8.533-3.823,8.533-8.533c0-4.71-3.814-8.533-8.533-8.533H8.533
				C3.814,25.6,0,29.423,0,34.133C0,38.844,3.814,42.667,8.533,42.667z"/>
			<path d="M153.6,264.533c9.421,0,17.067-7.654,17.067-17.067V179.2c0-9.421-7.646-17.067-17.067-17.067h-34.133
				c-9.421,0-17.067,7.646-17.067,17.067v68.267c0,9.412,7.646,17.067,17.067,17.067H153.6z M119.467,179.2H153.6l0.017,68.267
				h-34.15V179.2z"/>
			<path d="M17.067,324.267c0,4.71,3.814,8.533,8.533,8.533h435.2c4.719,0,8.533-3.823,8.533-8.533s-3.814-8.533-8.533-8.533H25.6
				C20.881,315.733,17.067,319.556,17.067,324.267z"/>
			<path d="M153.6,409.6c0-4.71-3.814-8.533-8.533-8.533s-8.533,3.823-8.533,8.533c0,23.526,19.14,42.667,42.667,42.667
				s42.667-19.14,42.667-42.667c0-4.71-3.814-8.533-8.533-8.533c-4.719,0-8.533,3.823-8.533,8.533c0,14.114-11.486,25.6-25.6,25.6
				S153.6,423.714,153.6,409.6z"/>
			<path d="M256,409.6c0-4.71-3.814-8.533-8.533-8.533s-8.533,3.823-8.533,8.533c0,23.526,19.14,42.667,42.667,42.667
				c23.526,0,42.667-19.14,42.667-42.667c0-4.71-3.814-8.533-8.533-8.533s-8.533,3.823-8.533,8.533c0,14.114-11.486,25.6-25.6,25.6
				S256,423.714,256,409.6z"/>
			<path d="M290.389,409.6c0-4.71-3.823-8.533-8.533-8.533h-0.085c-4.71,0-8.491,3.823-8.491,8.533s3.866,8.533,8.576,8.533
				S290.389,414.31,290.389,409.6z"/>
			<path d="M85.581,409.6c0-4.71-3.814-8.533-8.533-8.533h-0.077c-4.71,0-8.491,3.823-8.491,8.533s3.866,8.533,8.568,8.533
				C81.766,418.133,85.581,414.31,85.581,409.6z"/>
			<path d="M187.981,409.6c0-4.71-3.814-8.533-8.533-8.533h-0.077c-4.71,0-8.491,3.823-8.491,8.533s3.866,8.533,8.567,8.533
				C184.166,418.133,187.981,414.31,187.981,409.6z"/>
			<path d="M285.047,93.952L304.7,74.3c3.336-3.337,3.336-8.73,0-12.066c-3.337-3.337-8.73-3.337-12.066,0l-28.1,28.1l-28.1-28.1
				c-3.337-3.337-8.73-3.337-12.066,0c-3.337,3.337-3.337,8.73,0,12.066l19.567,19.567H131.533L151.1,74.3
				c3.337-3.337,3.337-8.73,0-12.066c-3.337-3.337-8.73-3.337-12.066,0l-28.1,28.1l-28.1-28.1c-3.337-3.337-8.73-3.337-12.066,0
				c-3.337,3.337-3.337,8.73,0,12.066l19.567,19.567H8.533C3.814,93.867,0,97.69,0,102.4c0,4.71,3.814,8.533,8.533,8.533H281.6
				c90.564,0,168.073,56.747,198.972,136.533h-36.838v-8.533c0-4.71-3.814-8.533-8.533-8.533s-8.533,3.823-8.533,8.533v8.533H358.4
				V179.2h34.133c4.719,0,8.533-3.823,8.533-8.533c0-4.719-3.814-8.533-8.533-8.533H358.4c-9.412,0-17.067,7.646-17.067,17.067
				v68.267c0,9.412,7.654,17.067,17.067,17.067h127.957c5.547,18.961,8.576,38.997,8.576,59.733v42.667H486.4
				c-4.719,0-8.533,3.823-8.533,8.533S481.681,384,486.4,384h8.533v25.6c0,5.265-3.268,8.533-8.533,8.533h-98.867l-48.7-48.7
				c-1.596-1.604-3.763-2.5-6.033-2.5H42.667c-4.719,0-8.533,3.823-8.533,8.533S37.948,384,42.667,384h286.601l48.7,48.7
				c1.596,1.604,3.763,2.5,6.033,2.5h102.4c14.592,0,25.6-11.008,25.6-25.6v-85.333C512,198.374,410.496,95.812,285.047,93.952z"/>
			<path d="M0,273.067c0,4.71,3.814,8.533,8.533,8.533h51.2c4.719,0,8.533-3.823,8.533-8.533s-3.814-8.533-8.533-8.533h-51.2
				C3.814,264.533,0,268.356,0,273.067z"/>
			<path d="M503.467,469.333h-59.725l-0.017-0.35c-0.188-4.71-4.258-8.448-8.875-8.175c-4.582,0.188-8.107,3.977-8.115,8.525
				h-85.393l-0.017-0.35c-0.188-4.71-4.361-8.448-8.875-8.175c-4.582,0.188-8.107,3.977-8.115,8.525h-85.393l-0.017-0.358
				c-0.188-4.702-4.122-8.439-8.875-8.166c-4.582,0.188-8.115,3.977-8.115,8.525h-85.393l-0.017-0.358
				c-0.188-4.702-4.062-8.439-8.875-8.166c-4.582,0.188-8.115,3.977-8.115,8.525H33.783l-0.017-0.358
				c-0.188-4.702-4.13-8.439-8.875-8.166c-4.582,0.188-8.107,3.977-8.115,8.525H8.533c-4.719,0-8.533,3.823-8.533,8.533
				s3.814,8.533,8.533,8.533h494.933c4.719,0,8.533-3.823,8.533-8.533S508.186,469.333,503.467,469.333z"/>
			<path d="M59.733,230.4c4.719,0,8.533-3.823,8.533-8.533c0-4.71-3.814-8.533-8.533-8.533H25.6c-4.719,0-8.533,3.823-8.533,8.533
				c0,4.71,3.814,8.533,8.533,8.533H59.733z"/>
		</g>
	</g>
</g>
<g>
</g>
<g>
</g>
<g>
</g>
<g>
</g>
<g>
</g>
<g>
</g>
<g>
</g>
<g>
</g>
<g>
</g>
<g>
</g>
<g>
</g>
<g>
</g>
<g>
</g>
<g>
</g>
<g>
</g>
</svg>
