<?xml version="1.0" encoding="iso-8859-1"?>
<!-- Generator: Adobe Illustrator 19.0.0, SVG Export Plug-In . SVG Version: 6.00 Build 0)  -->
<svg version="1.1" id="Layer_1" xmlns="http://www.w3.org/2000/svg" xmlns:xlink="http://www.w3.org/1999/xlink" x="0px" y="0px"
	 viewBox="0 0 512.009 512.009" style="enable-background:new 0 0 512.009 512.009;" xml:space="preserve">
<g>
	<g>
		<path d="M435.387,41.353L399.035,5.001C395.809,1.775,391.525,0,386.969,0c-4.557,0-8.849,1.775-12.066,5.001l-6.033,6.033
			l-6.042-6.042c-3.337-3.319-8.738-3.328-12.066,0.009l-30.165,30.165c-1.604,1.604-2.5,3.772-2.5,6.033v20.608l-208.7,208.683
			l-6.033-6.033c-3.328-3.328-8.73-3.328-12.066,0c-3.328,3.328-3.328,8.738,0,12.066l6.033,6.033l-24.141,24.141
			c-6.639,6.656-6.639,17.485,0.009,24.141l30.165,30.165c1.673,1.664,3.857,2.5,6.033,2.5c2.185,0,4.369-0.836,6.042-2.5
			l36.181-36.181c0.009-0.009,0.017-0.009,0.026-0.026c0.009-0.009,0.009-0.017,0.017-0.017l24.098-24.107
			c0.009-0.008,0.017-0.008,0.017-0.008l0.009-0.017l48.239-48.239c0.009-0.009,0.017-0.009,0.026-0.017
			c0.009-0.008,0.009-0.017,0.017-0.026l24.107-24.107h0.009c0-0.009,0.009-0.009,0.009-0.017L423.167,53.265l0.154,0.154
			c3.661,3.669,5.768,17.05-0.614,26.12l-126.95,161.579c-3.985,5.137-7.185,10.829-9.685,16.683
			c-0.145,0.299-0.273,0.589-0.367,0.896c-5.555,13.431-7.083,27.725-3.362,38.682c0.102,0.29,0.222,0.572,0.35,0.862l42.231,90.505
			c1.263,2.705,3.849,4.548,6.81,4.872c19.533,2.133,39.731,6.656,43.17,9.626c4.053,4.062,4.053,8.004,0,12.066l-68.028,68.028
			c-2.304,2.304-22.997,21.965-40.593,4.378c-7.74-7.74-17.007-32.461-25.19-54.272c-8.585-22.886-16.751-44.587-25.745-56.397
			l55.279-55.279c3.337-3.337,3.337-8.73,0-12.066c-3.337-3.336-8.73-3.336-12.066,0l-56.192,56.192
			c-6.511-3.772-13.679-5.922-20.992-5.734c-10.991,0.137-21.547,4.719-29.73,12.911c-1.34,1.331-3.473,2.918-6.025,2.918h-0.026
			c-2.569-0.009-4.693-1.587-6.016-2.91c-3.337-3.345-8.738-3.337-12.075-0.009c-3.328,3.328-3.328,8.73,0,12.066
			c5.077,5.086,11.477,7.902,18.022,7.919h0.085c6.562,0,12.988-2.807,18.099-7.919c5.026-5.026,11.375-7.834,17.877-7.919
			c6.818,0.017,13.065,2.654,18.321,7.919c7.748,7.748,17.024,32.486,25.207,54.306c9.634,25.702,18.739,49.988,29.099,60.339
			c8.661,8.661,18.475,12.228,28.194,12.228c13.525,0,26.837-6.921,36.531-16.606l68.028-68.028
			c10.658-10.667,10.658-25.549,0-36.207c-7.868-7.859-33.792-12.117-48.589-13.952l-22.34-47.872l28.689-28.681
			c11.733-11.733,18.193-26.735,18.193-42.24c0-15.505-6.46-30.507-18.193-42.231l-4.301-4.309l95.966-122.146
			C447.607,73.83,445.115,51.072,435.387,41.353z M242.149,210.15l-6.033-6.033c-3.328-3.328-8.73-3.328-12.066,0
			c-3.336,3.336-3.336,8.738,0,12.075l6.033,6.025l-12.075,12.075l-6.033-6.042c-3.337-3.328-8.738-3.328-12.066,0
			c-3.336,3.336-3.336,8.738,0,12.075l6.033,6.033l-12.066,12.066l-6.033-6.033c-3.337-3.336-8.738-3.336-12.066,0
			c-3.337,3.337-3.337,8.738,0,12.066l6.033,6.033l-12.066,12.066l-6.033-6.025c-3.337-3.336-8.738-3.336-12.066,0
			c-3.337,3.328-3.337,8.73,0,12.066l6.033,6.025l-12.066,12.075l-6.033-6.033c-3.337-3.337-8.738-3.337-12.075,0
			c-3.328,3.328-3.328,8.73,0,12.066l6.042,6.033l-24.149,24.141l-24.132-24.141l247.398-247.39
			c1.596-1.604,2.492-3.772,2.492-6.033V44.732L356.795,23.1l6.042,6.042c3.328,3.319,8.73,3.328,12.066-0.009l12.066-12.066
			l24.132,24.132L242.149,210.15z M345.855,258.423c0,10.948-4.685,21.658-13.193,30.174l-24.294,24.294l-9.993-21.41
			c-1.51-4.796-1.306-10.948,0.171-17.374c6.246,2.577,15.317,4.915,28.075,4.915c4.719,0,8.533-3.823,8.533-8.533
			s-3.814-8.533-8.533-8.533c-10.641,0-17.587-1.937-21.777-3.686c1.314-2.304,2.739-4.557,4.361-6.639l20.608-26.232l2.85,2.85
			C341.17,236.766,345.855,247.475,345.855,258.423z"/>
	</g>
</g>
<g>
</g>
<g>
</g>
<g>
</g>
<g>
</g>
<g>
</g>
<g>
</g>
<g>
</g>
<g>
</g>
<g>
</g>
<g>
</g>
<g>
</g>
<g>
</g>
<g>
</g>
<g>
</g>
<g>
</g>
</svg>
